HIERARCHY
ROOT Hips
{
	OFFSET 0.000000 0.000000 0.000000
	CHANNELS 6 Xposition Yposition Zposition Zrotation Yrotation Xrotation 
	JOINT LHipJoint
	{
		OFFSET 0.000000 0.000000 0.000000
		CHANNELS 3 Zrotation Yrotation Xrotation
		JOINT LeftUpLeg
		{
			OFFSET 8.178360 -10.767780 5.035740
			CHANNELS 3 Zrotation Yrotation Xrotation
			JOINT LeftLeg
			{
				OFFSET 14.688660 -40.356780 0.000000
				CHANNELS 3 Zrotation Yrotation Xrotation
				JOINT LeftFoot
				{
					OFFSET 15.373200 -42.237540 0.000000
					CHANNELS 3 Zrotation Yrotation Xrotation
					JOINT LeftToeBase
					{
						OFFSET 0.945840 -2.598660 13.935300
						CHANNELS 3 Zrotation Yrotation Xrotation
						End Site
						{
							OFFSET 0.000000 0.000000 0.000000
						}
					}
				}
			}
		}
	}
	JOINT RHipJoint
	{
		OFFSET 0.000000 0.000000 0.000000
		CHANNELS 3 Zrotation Yrotation Xrotation
		JOINT RightUpLeg
		{
			OFFSET -7.833120 -10.767780 5.035740
			CHANNELS 3 Zrotation Yrotation Xrotation
			JOINT RightLeg
			{
				OFFSET -15.255180 -41.913300 0.000000
				CHANNELS 3 Zrotation Yrotation Xrotation
				JOINT RightFoot
				{
					OFFSET -15.409560 -42.337380 0.000000
					CHANNELS 3 Zrotation Yrotation Xrotation
					JOINT RightToeBase
					{
						OFFSET -0.988380 -2.715540 14.178900
						CHANNELS 3 Zrotation Yrotation Xrotation
						End Site
						{
							OFFSET 0.000000 0.000000 0.000000
						}
					}
				}
			}
		}
	}
	JOINT LowerBack
	{
		OFFSET 0.000000 0.000000 0.000000
		CHANNELS 3 Zrotation Yrotation Xrotation
		JOINT Spine
		{
			OFFSET 0.169620 12.213540 -1.160280
			CHANNELS 3 Zrotation Yrotation Xrotation
			JOINT Spine1
			{
				OFFSET 0.340320 12.293100 -0.256500
				CHANNELS 3 Zrotation Yrotation Xrotation
				JOINT Neck
				{
					OFFSET 0.000000 0.000000 0.000000
					CHANNELS 3 Zrotation Yrotation Xrotation
					JOINT Neck1
					{
						OFFSET -0.325020 10.477440 1.032120
						CHANNELS 3 Zrotation Yrotation Xrotation
						JOINT Head
						{
							OFFSET 0.624420 10.568160 -0.743820
							CHANNELS 3 Zrotation Yrotation Xrotation
							End Site
							{
								OFFSET 0.000000 0.000000 0.000000
							}
						}
					}
				}
				JOINT LeftShoulder
				{
					OFFSET 0.000000 0.000000 0.000000
					CHANNELS 3 Zrotation Yrotation Xrotation
					JOINT LeftArm
					{
						OFFSET 20.174460 7.205340 -1.867260
						CHANNELS 3 Zrotation Yrotation Xrotation
						JOINT LeftForeArm
						{
							OFFSET 29.898000 -0.000000 -0.000000
							CHANNELS 3 Zrotation Yrotation Xrotation
							JOINT LeftHand
							{
								OFFSET 20.901360 -0.000000 -0.000000
								CHANNELS 3 Zrotation Yrotation Xrotation
								JOINT LeftFingerBase
								{
									OFFSET 0.000000 0.000000 0.000000
									CHANNELS 3 Zrotation Yrotation Xrotation
									JOINT LeftHandIndex1
									{
										OFFSET 4.291560 -0.000000 -0.000000
										CHANNELS 3 Zrotation Yrotation Xrotation
										End Site
										{
											OFFSET 0.000000 0.000000 0.000000
										}
									}
								}
								JOINT LThumb
								{
									OFFSET 0.000000 0.000000 0.000000
									CHANNELS 3 Zrotation Yrotation Xrotation
									End Site
									{
										OFFSET 0.000000 0.000000 0.000000
									}
								}
							}
						}
					}
				}
				JOINT RightShoulder
				{
					OFFSET 0.000000 0.000000 0.000000
					CHANNELS 3 Zrotation Yrotation Xrotation
					JOINT RightArm
					{
						OFFSET -18.819600 8.244300 -2.427900
						CHANNELS 3 Zrotation Yrotation Xrotation
						JOINT RightForeArm
						{
							OFFSET -31.451400 -0.000000 -0.000000
							CHANNELS 3 Zrotation Yrotation Xrotation
							JOINT RightHand
							{
								OFFSET -20.665020 -0.000000 -0.000000
								CHANNELS 3 Zrotation Yrotation Xrotation
								JOINT RightFingerBase
								{
									OFFSET 0.000000 0.000000 0.000000
									CHANNELS 3 Zrotation Yrotation Xrotation
									JOINT RightHandIndex1
									{
										OFFSET -3.735180 -0.000000 -0.000000
										CHANNELS 3 Zrotation Yrotation Xrotation
										End Site
										{
											OFFSET 0.000000 0.000000 0.000000
										}
									}
								}
								JOINT RThumb
								{
									OFFSET 0.000000 0.000000 0.000000
									CHANNELS 3 Zrotation Yrotation Xrotation
									End Site
									{
										OFFSET 0.000000 0.000000 0.000000
									}
								}
							}
						}
					}
				}
			}
		}
	}
}
MOTION
Frames:	10
Frame Time:	0.0333333
-39.857070 103.066536 25.874646 -10.895549 19.163663 -2.307428 0.709113 -0.543451 -0.848400 -7.347360 -5.939750 -44.784952 17.402470 21.497035 81.010102 -0.575231 3.565576 6.819257 0.063700 -1.628700 -4.480500 0.738017 -1.298481 2.376220 14.275801 2.912633 -11.420128 -2.490872 -10.989284 34.296847 0.633751 -4.626738 0.136034 -2.090100 9.051200 -25.955600 5.088975 3.916697 20.046190 2.325918 6.994707 -1.435529 5.877715 3.480760 -4.622419 -6.336622 -4.843452 -11.418246 3.433579 -5.520003 6.370111 1.828000 -2.883500 7.289900 -1.626187 2.175545 -3.066192 -84.202316 18.197873 33.598938 74.162553 -60.861971 -57.724939 -0.741376 -2.502632 -20.458439 20.715703 4.334671 2.651500 -7.125000 0.000000 0.000000 -3.759500 36.954900 0.745400 0.849157 -1.430809 -1.384011 75.542925 -5.019033 40.817937 -125.728689 56.032767 -94.533562 1.987234 -0.782991 -13.671035 -20.646333 24.836509 -10.177500 7.125000 0.000000 0.000000 4.456200 -2.401300 4.278700 
-36.069882 102.806928 40.432272 -12.369632 23.232487 -3.080982 0.582418 -0.884920 -1.619157 -10.091968 -8.261475 -48.737267 12.303944 20.740367 67.197438 0.344789 0.903598 10.030000 0.227900 -3.073000 -8.482000 1.143751 -2.061494 3.820396 17.313200 -0.300062 0.532387 -1.280731 -8.556191 27.645018 2.514330 -9.399259 -1.688921 -3.111000 10.872600 -31.851400 6.190517 5.314704 20.084659 2.151645 9.017876 -1.623708 4.708519 4.674699 -5.747498 -6.005393 -5.123207 -10.299920 3.512581 -6.041810 6.670698 1.836600 -3.131200 7.322300 -1.567249 2.195318 -3.203290 -83.929510 21.535279 32.344796 76.300848 -61.602358 -59.860288 -0.651799 -2.165298 -21.075557 17.172339 2.292814 1.382900 -7.125000 0.000000 0.000000 -6.634300 34.266000 1.757300 0.779995 -1.141097 -1.326488 76.002740 1.481965 42.772229 -125.621596 55.865024 -94.445551 1.978397 -1.033853 -13.837942 -18.997021 27.943032 -10.420500 7.125000 0.000000 0.000000 5.883400 0.724700 5.988900 
-30.520818 103.254240 54.669846 -14.425900 24.616006 -1.549568 0.115104 -1.605214 -2.513602 -13.810760 -7.709241 -51.203724 5.505541 17.504234 48.433132 1.736134 -1.638787 18.505626 0.163200 -2.602500 -7.174000 1.510612 -2.373504 4.736377 18.737523 -1.942921 7.697209 -0.448126 -6.615488 22.242820 2.028194 -8.617480 8.589279 -4.026800 12.196000 -36.428800 10.082751 7.125553 17.922739 1.419204 11.574544 -2.098947 0.121080 6.165125 -5.686520 -5.799262 -6.239403 -10.645434 3.866231 -7.587861 7.236230 2.173200 -3.825700 7.995900 -1.635961 2.613617 -3.366256 -79.829691 27.106497 34.142996 84.655145 -63.986125 -66.538537 -0.595196 -2.117181 -20.924144 17.635386 2.997517 1.648100 -7.125000 0.000000 0.000000 -6.387200 34.999400 1.576800 0.226116 -1.044188 -1.292650 77.524251 3.342335 45.546390 -128.234026 54.452240 -96.154978 2.007176 -1.208834 -10.818072 -21.880416 27.648172 -11.952000 7.125000 0.000000 0.000000 4.129800 1.083700 4.218100 
-24.360912 104.682066 70.161546 -14.524521 26.805223 -0.358625 -1.296692 -2.267635 -3.016103 -20.342673 -3.318310 -48.642825 0.356449 12.723231 32.923885 3.634550 -4.757372 27.955867 0.005000 -0.455700 -1.252100 2.321486 -2.658336 5.511963 17.827242 -1.100847 12.800326 -0.254065 -6.051200 19.316625 -0.486748 -10.818882 33.757496 -2.441900 9.731500 -28.111600 9.478529 8.486123 14.579819 1.100201 12.683177 -2.244412 -0.060547 6.952198 -4.795148 -6.552979 -7.072907 -10.864350 4.267084 -8.540849 7.606473 2.474800 -4.273200 8.384800 -1.585549 3.057029 -3.611900 -80.082320 31.327100 34.201708 86.108804 -64.593844 -67.486036 -0.746562 -2.167380 -19.758610 19.398865 2.833274 1.777800 -7.125000 0.000000 0.000000 -4.815000 34.946700 1.192200 -0.046457 -1.073169 -1.200048 77.092027 1.652116 49.907793 -130.918315 53.238414 -97.854424 1.949289 -1.355549 -10.519286 -21.832935 28.363117 -12.193700 7.125000 0.000000 0.000000 4.323400 1.939900 4.479900 
-18.433260 105.071478 84.719814 -15.724444 27.582257 -1.113661 -2.394968 -2.462608 -2.580485 -23.813219 1.551156 -45.047624 -0.221925 11.214958 28.572374 2.558654 3.127869 32.575507 0.111000 2.148100 5.915200 2.118858 -1.994074 4.876892 19.584393 1.081989 11.631402 -2.089665 -9.510566 31.215801 -2.444999 -2.874101 35.753195 -0.430900 4.212400 -11.675100 9.461927 8.733272 14.057912 0.851287 12.929727 -2.373964 -0.971288 7.062014 -4.969894 -5.490007 -6.754857 -10.964140 4.911436 -8.417811 7.719082 2.611800 -4.073500 8.479500 -1.516567 3.119185 -3.706731 -81.344677 34.464889 32.308481 91.403803 -65.496046 -70.978792 -0.777101 -2.206753 -20.539576 21.399041 3.877384 2.418000 -7.125000 0.000000 0.000000 -3.182300 36.182300 0.690700 -0.157247 -1.167421 -1.163998 78.415898 -0.927769 53.535943 -129.064526 54.100681 -96.437829 1.799004 -1.551264 -6.900268 -20.700300 29.573107 -11.954100 7.125000 0.000000 0.000000 5.201100 3.004300 5.488700 
-12.965634 104.282478 99.528774 -17.627744 30.532080 -2.935989 -2.873139 -1.989741 -1.261828 -22.825368 1.208879 -38.361546 0.310812 11.632687 31.611644 3.187271 -1.306388 31.357189 3.490200 11.449300 33.810500 1.332935 -1.422792 3.362540 21.616187 -2.667035 4.926852 -7.723301 -14.476704 49.405792 0.366877 -11.426790 28.822722 -0.494700 4.509600 -12.514800 8.286362 6.962071 13.284177 1.216520 10.499949 -2.319069 1.299742 5.773565 -4.809961 -5.871654 -5.770486 -10.912196 5.219262 -6.980036 7.242066 2.861400 -3.382900 8.021000 -1.334151 3.077161 -3.516268 -86.282227 33.963642 29.847975 97.359339 -65.495969 -74.807954 -0.672257 -1.765000 -19.754114 17.740519 2.506677 1.366600 -7.125000 0.000000 0.000000 -6.289500 34.133100 1.685400 0.042020 -1.337719 -1.179854 79.542780 -5.299431 55.795233 -123.496805 56.526311 -92.495434 1.908555 -1.399952 -6.156240 -21.281100 29.295369 -12.208100 7.125000 0.000000 0.000000 4.717400 2.670500 4.948600 
-6.891636 102.879468 113.518836 -15.124351 34.449087 -0.724194 -2.958995 -1.084877 -0.030493 -25.957063 -1.235239 -30.838819 1.713508 12.427371 35.547896 1.315137 -0.135154 12.235993 2.763400 10.301800 29.959700 0.572755 -1.375301 2.180124 16.976600 -6.681804 -6.550402 -13.152930 -17.567947 66.219573 2.004747 -14.540136 21.931809 -0.686300 5.296500 -14.756100 4.621504 5.038895 11.356427 1.039981 7.211779 -2.447589 2.194307 4.068574 -4.356724 -5.673043 -4.885950 -11.416780 5.692754 -5.844379 7.284841 3.106900 -2.768400 7.997100 -1.573516 3.063459 -3.070865 -87.249786 27.968984 33.475677 101.344728 -64.928117 -77.226711 -0.595826 -1.728977 -19.093537 17.593502 4.076107 1.876700 -7.125000 0.000000 0.000000 -6.661500 35.765700 1.520200 0.078122 -1.548495 -1.341032 81.689888 -11.110467 52.853867 -114.188431 59.401801 -86.039118 1.948156 -1.269647 -5.199306 -18.714590 29.145406 -10.699800 7.125000 0.000000 0.000000 6.106400 1.847300 6.335800 
-1.427196 101.622798 126.376302 -10.103659 36.716390 3.399279 -3.085601 -0.483832 0.869238 -29.316590 -4.885406 -22.516904 2.239478 12.313693 36.527413 0.300870 2.118532 1.315106 1.830800 8.504500 24.257100 -0.298276 -1.059070 1.070222 10.341168 -4.605803 -20.371363 -17.668370 -19.528855 80.067937 2.508480 -13.667992 15.631703 -0.194500 2.840300 -7.834300 -0.628855 3.652141 11.267345 0.777734 4.648404 -2.553398 3.492301 2.673882 -4.435289 -6.091477 -4.523516 -12.768577 6.068425 -5.173450 6.945102 3.334100 -2.397100 8.146700 -1.905247 2.827865 -2.607211 -87.667908 17.084778 37.973583 102.581225 -64.160060 -78.203286 -0.190989 -1.541514 -19.873752 12.249279 5.193352 1.512700 -7.125000 0.000000 0.000000 -11.604700 36.522300 2.460300 0.114177 -1.550198 -1.606504 82.447624 -17.198694 47.139731 -106.034188 60.944211 -80.531173 2.111121 -1.135906 -3.752441 -17.838268 28.514013 -10.076900 7.125000 0.000000 0.000000 6.393400 0.879400 6.531400 
4.529730 100.948968 139.054974 -7.410361 36.730913 5.911365 -3.126444 -0.043300 1.785177 -30.517816 -5.235836 -14.680920 2.261693 11.812745 36.084473 0.400091 1.977567 -2.632939 1.320000 7.276600 20.537500 -1.060095 -0.523702 0.035706 5.619904 1.470342 -33.438945 -19.163379 -20.712438 84.947901 1.864845 -9.818268 11.809960 -0.168600 2.644900 -7.291700 -3.574647 2.801962 10.690023 0.790578 3.207963 -2.473128 4.778103 1.824965 -3.907989 -5.112077 -3.548670 -12.292155 4.884476 -4.088456 5.585798 2.425700 -1.942000 6.873900 -1.576259 2.629302 -2.105026 -89.700218 9.064933 39.811472 114.098850 -62.120817 -85.535862 -0.370964 -1.481442 -22.241060 14.676156 5.996065 2.012200 -7.125000 0.000000 0.000000 -9.523300 37.335400 1.816200 0.088172 -1.878950 -1.721068 81.707738 -23.796365 42.289552 -107.677058 61.036038 -81.780241 2.140183 -0.896157 -8.993769 -17.489702 27.718746 -9.612500 7.125000 0.000000 0.000000 6.532300 -0.035800 6.571100 
12.459150 102.157914 151.810632 -7.326137 36.570853 6.694299 -3.385241 0.586972 3.051967 -29.252079 -3.702319 -6.202247 1.395255 10.260221 31.994840 -0.070000 2.958394 4.133960 0.094600 1.983100 5.459100 -1.238929 -0.209678 -0.737267 4.115562 5.895226 -42.167798 -16.337043 -21.115424 77.443603 0.680887 -5.127052 10.996282 -0.544700 4.728500 -13.135700 -2.825447 1.067362 9.627884 0.967534 1.075011 -2.591442 4.954875 0.642584 -3.430512 -4.956699 -2.050670 -12.810977 4.318177 -2.125676 6.494525 2.263100 -1.065200 7.268300 -1.202647 2.526243 -2.007863 -89.260651 6.707388 40.961947 131.957859 -55.803725 -97.453763 -0.414170 -1.327177 -33.953378 14.697354 6.369397 2.037800 -7.125000 0.000000 0.000000 -9.356400 37.343400 1.781900 -0.152121 -2.100879 -1.881701 79.166081 -29.494188 40.960580 -113.965502 60.116442 -86.066167 1.980035 -0.909082 -13.677551 -16.627443 28.080831 -9.180400 7.125000 0.000000 0.000000 7.248500 0.313500 7.347000 
